<?xml version="1.0" encoding="UTF-8" standalone="no"?>
<svg
   xmlns:dc="http://purl.org/dc/elements/1.1/"
   xmlns:cc="http://creativecommons.org/ns#"
   xmlns:rdf="http://www.w3.org/1999/02/22-rdf-syntax-ns#"
   xmlns:svg="http://www.w3.org/2000/svg"
   xmlns="http://www.w3.org/2000/svg"
   xmlns:sodipodi="http://sodipodi.sourceforge.net/DTD/sodipodi-0.dtd"
   xmlns:inkscape="http://www.inkscape.org/namespaces/inkscape"
   width="37.246033mm"
   height="34.208332mm"
   viewBox="0 0 37.246033 34.208332"
   version="1.1"
   id="svg8"
   inkscape:version="1.0.1 (1.0.1+r73)"
   sodipodi:docname="logo.svg">
  <defs
     id="defs2" />
  <sodipodi:namedview
     id="base"
     pagecolor="#ffffff"
     bordercolor="#666666"
     borderopacity="1.0"
     inkscape:pageopacity="0.0"
     inkscape:pageshadow="2"
     inkscape:zoom="1.4142136"
     inkscape:cx="43.603501"
     inkscape:cy="52.891043"
     inkscape:document-units="mm"
     inkscape:current-layer="layer1"
     inkscape:document-rotation="0"
     showgrid="false"
     inkscape:snap-global="false"
     inkscape:window-width="1364"
     inkscape:window-height="701"
     inkscape:window-x="0"
     inkscape:window-y="40"
     inkscape:window-maximized="0"
     fit-margin-top="0"
     fit-margin-left="0"
     fit-margin-right="0"
     fit-margin-bottom="0" />
  <metadata
     id="metadata5">
    <rdf:RDF>
      <cc:Work
         rdf:about="">
        <dc:format>image/svg+xml</dc:format>
        <dc:type
           rdf:resource="http://purl.org/dc/dcmitype/StillImage" />
        <dc:title></dc:title>
      </cc:Work>
    </rdf:RDF>
  </metadata>
  <g
     inkscape:label="Layer 1"
     inkscape:groupmode="layer"
     id="layer1"
     transform="translate(-65.975757,-96.409918)">
    <path
       id="rect947"
       style="font-variation-settings:normal;opacity:1;vector-effect:none;fill:#ffc25c;fill-opacity:1;fill-rule:evenodd;stroke:none;stroke-width:0.367385;stroke-linecap:butt;stroke-linejoin:miter;stroke-miterlimit:4;stroke-dasharray:none;stroke-dashoffset:0;stroke-opacity:1;stop-color:#000000;stop-opacity:1"
       d="m 73.864742,96.430666 c -2.63067,0.228446 -4.693865,2.355048 -4.8426,4.991424 v 0.5917 c 0.155376,2.81494 2.483297,5.01785 5.30252,5.01778 0.589139,6e-5 1.174183,-0.0979 1.73116,-0.2899 v -8.133875 c 0,-1.096139 -0.705707,-2.038461 -1.757386,-2.193628 -0.105312,-0.01553 -0.309462,0.01651 -0.419224,0.01651 z"
       sodipodi:nodetypes="cccccsssc" />
    <path
       id="rect857"
       style="font-variation-settings:normal;opacity:1;vector-effect:none;fill:#ffc25c;fill-opacity:1;fill-rule:evenodd;stroke:none;stroke-width:0.367385;stroke-linecap:butt;stroke-linejoin:miter;stroke-miterlimit:4;stroke-dasharray:none;stroke-dashoffset:0;stroke-opacity:1;stop-color:#000000;stop-opacity:1"
       d="m 76.055822,102.05306 c -0.07158,0.009 -0.143922,0.0155 -0.218075,0.0155 h -6.815605 v 26.37306 c 0,1.2059 0.970711,2.17662 2.176613,2.17662 h 2.680457 c 1.205899,0 2.17661,-0.97072 2.17661,-2.17662 z" />
    <path
       id="rect859"
       style="font-variation-settings:normal;opacity:1;vector-effect:none;fill:#ffc25c;fill-opacity:1;fill-rule:evenodd;stroke:none;stroke-width:0.367385;stroke-linecap:butt;stroke-linejoin:miter;stroke-miterlimit:4;stroke-dasharray:none;stroke-dashoffset:0;stroke-opacity:1;stop-color:#000000;stop-opacity:1"
       d="m 96.175525,101.94093 v 26.57925 c 0,1.16225 0.935804,2.09807 2.098061,2.09807 h 2.838074 c 1.16225,0 2.09754,-0.93582 2.09754,-2.09807 v -26.57047 h -6.864178 c -0.05728,0 -0.113406,-0.004 -0.169497,-0.009 z" />
    <path
       id="rect861"
       style="font-variation-settings:normal;opacity:1;vector-effect:none;fill:#ffc25c;fill-opacity:1;fill-rule:evenodd;stroke:none;stroke-width:0.264583;stroke-linecap:butt;stroke-linejoin:miter;stroke-miterlimit:4;stroke-dasharray:none;stroke-dashoffset:0;stroke-opacity:1;stop-color:#000000;stop-opacity:1"
       d="m 90.497833,96.412582 c -1.390332,0 -2.509406,1.119071 -2.509406,2.509406 v 2.014862 c 0,1.39033 1.119074,2.50941 2.509406,2.50941 h 7.261575 l 0.355713,-7.019528 c -0.04682,-0.0049 -0.05559,-0.0094 -0.08339,-0.01416 z"
       sodipodi:nodetypes="sssscccs" />
    <path
       id="rect863"
       style="font-variation-settings:normal;opacity:1;vector-effect:none;fill:#ffc25c;fill-opacity:1;fill-rule:evenodd;stroke:none;stroke-width:0.264583;stroke-linecap:butt;stroke-linejoin:miter;stroke-miterlimit:4;stroke-dasharray:none;stroke-dashoffset:0;stroke-opacity:1;stop-color:#000000;stop-opacity:1"
       d="m 74.266784,96.412582 v 5.004858 c 0,0.96535 -0.777185,1.74253 -1.74253,1.74253 h -1.108975 v 0.28629 h 10.60917 c 1.390335,0 2.509925,-1.11908 2.509925,-2.50941 v -2.014862 c 0,-1.390335 -1.11959,-2.509406 -2.509925,-2.509406 z" />
    <path
       id="rect865"
       style="font-variation-settings:normal;opacity:1;vector-effect:none;fill:#ffc25c;fill-opacity:1;fill-rule:evenodd;stroke:none;stroke-width:0.389898;stroke-linecap:butt;stroke-linejoin:miter;stroke-miterlimit:4;stroke-dasharray:none;stroke-dashoffset:0;stroke-opacity:1;stop-color:#000000;stop-opacity:1"
       d="m 68.511593,109.38182 c -1.404728,0 -2.535836,1.09989 -2.535836,2.46651 v 1.98024 c 0,1.36662 1.131108,2.46704 2.535836,2.46704 h 30.149568 v -6.91379 z" />
    <path
       id="rect867"
       style="font-variation-settings:normal;opacity:1;vector-effect:none;fill:#ffc25c;fill-opacity:1;fill-rule:evenodd;stroke:none;stroke-width:0.367385;stroke-linecap:butt;stroke-linejoin:miter;stroke-miterlimit:4;stroke-dasharray:none;stroke-dashoffset:0;stroke-opacity:1;stop-color:#000000;stop-opacity:1"
       d="m 82.371021,114.00117 v 14.51901 c 0,1.16225 0.935289,2.09807 2.097545,2.09807 h 2.838069 c 1.162256,0 2.098064,-0.93582 2.098064,-2.09807 v -14.51901 z" />
    <path
       id="rect869"
       style="font-variation-settings:normal;opacity:1;vector-effect:none;fill:#ffc25c;fill-opacity:1;fill-rule:evenodd;stroke:none;stroke-width:0.30197;stroke-linecap:butt;stroke-linejoin:miter;stroke-miterlimit:4;stroke-dasharray:none;stroke-dashoffset:0;stroke-opacity:1;stop-color:#000000;stop-opacity:1"
       d="m 85.97058,123.68901 c -1.747851,0 -3.15524,1.10042 -3.15524,2.46703 v 1.98024 c 0,1.36661 1.407389,2.46652 3.15524,2.46652 h 14.20057 v -6.91379 z" />
    <path
       id="rect905"
       style="font-variation-settings:normal;opacity:1;vector-effect:none;fill:#ffc25c;fill-opacity:1;fill-rule:evenodd;stroke:none;stroke-width:0.367385;stroke-linecap:butt;stroke-linejoin:miter;stroke-miterlimit:4;stroke-dasharray:none;stroke-dashoffset:0;stroke-opacity:1;stop-color:#000000;stop-opacity:1"
       d="m 98.115121,96.426731 c -1.063427,0.104232 -1.889289,0.996013 -1.889289,2.087726 v 8.254803 a 5.3104594,5.3104594 0 0 0 1.685168,0.2744 5.3104594,5.3104594 0 0 0 5.31079,-5.31027 5.3104594,5.3104594 0 0 0 -5.106669,-5.306659 z" />
    <path
       id="path939"
       style="fill:#ffc25c;fill-opacity:1;stroke:none;stroke-width:0.264583px;stroke-linecap:butt;stroke-linejoin:miter;stroke-opacity:1"
       d="m 96.965899,102.22384 -3.543453,0.10748 0.102319,0.31316 0.131257,0.79427 a 2.49985,2.49985 0 0 1 0.02274,0 2.49985,2.49985 0 0 1 2.490803,2.29185 l 0.679029,0.13229 z" />
    <path
       id="path945"
       style="fill:#ffc25c;fill-opacity:1;stroke:none;stroke-width:0.264583px;stroke-linecap:butt;stroke-linejoin:miter;stroke-opacity:1"
       d="m 75.281072,102.22384 3.543453,0.10748 -0.102319,0.31316 -0.131257,0.79427 a 2.49985,2.49985 0 0 0 -0.02274,0 2.49985,2.49985 0 0 0 -2.490803,2.29185 l -0.679029,0.13229 z" />
  </g>
</svg>
